<svg width="25" height="26" viewBox="0 0 25 26" fill="none" xmlns="http://www.w3.org/2000/svg">
<path d="M22.3214 0.75H2.67857C1.96817 0.75 1.28686 1.02656 0.784535 1.51884C0.282206 2.01113 0 2.67881 0 3.375L0 22.625C0 23.3212 0.282206 23.9889 0.784535 24.4812C1.28686 24.9734 1.96817 25.25 2.67857 25.25H10.3376V16.9205H6.82199V13H10.3376V10.0119C10.3376 6.61305 12.4023 4.73562 15.5647 4.73562C17.0792 4.73562 18.6629 5.00031 18.6629 5.00031V8.33625H16.918C15.1987 8.33625 14.6624 9.38188 14.6624 10.4543V13H18.5006L17.8867 16.9205H14.6624V25.25H22.3214C23.0318 25.25 23.7131 24.9734 24.2155 24.4812C24.7178 23.9889 25 23.3212 25 22.625V3.375C25 2.67881 24.7178 2.01113 24.2155 1.51884C23.7131 1.02656 23.0318 0.75 22.3214 0.75Z" fill="#2F44A7"/>
</svg>
