<svg width="25" height="26" viewBox="0 0 25 26" fill="none" xmlns="http://www.w3.org/2000/svg">
<path d="M12.25 10.083C11.6731 10.0832 11.1092 10.2544 10.6297 10.5751C10.1501 10.8958 9.77641 11.3514 9.55579 11.8845C9.33518 12.4175 9.27757 13.004 9.39025 13.5698C9.50292 14.1355 9.78083 14.6552 10.1888 15.063C10.5968 15.4709 11.1166 15.7486 11.6824 15.8611C12.2482 15.9735 12.8347 15.9157 13.3676 15.6949C13.9006 15.4741 14.3561 15.1002 14.6766 14.6205C14.9971 14.1408 15.1681 13.5769 15.1681 13C15.1675 12.2263 14.8599 11.4846 14.3127 10.9376C13.7656 10.3906 13.0237 10.0833 12.25 10.083ZM19.0701 7.84078C18.9216 7.46445 18.6973 7.12264 18.4113 6.83656C18.1252 6.55048 17.7834 6.32623 17.407 6.17773C16.2586 5.72437 13.5242 5.82609 12.25 5.82609C10.9758 5.82609 8.24414 5.72055 7.09242 6.17773C6.71609 6.32623 6.37428 6.55048 6.0882 6.83656C5.80212 7.12264 5.57788 7.46445 5.42937 7.84078C4.97656 8.98922 5.07773 11.7263 5.07773 12.9995C5.07773 14.2726 4.97656 17.0064 5.43156 18.1587C5.58006 18.535 5.80431 18.8768 6.09039 19.1629C6.37646 19.449 6.71827 19.6732 7.09461 19.8217C8.24305 20.2751 10.9774 20.1734 12.2522 20.1734C13.527 20.1734 16.2575 20.2789 17.4092 19.8217C17.7856 19.6732 18.1274 19.449 18.4134 19.1629C18.6995 18.8768 18.9238 18.535 19.0723 18.1587C19.5289 17.0102 19.4239 14.2731 19.4239 13C19.4239 11.7269 19.5289 8.99359 19.0723 7.84133L19.0701 7.84078ZM12.25 17.4844C11.3631 17.4844 10.4961 17.2214 9.75861 16.7286C9.02116 16.2359 8.44639 15.5355 8.10698 14.7161C7.76757 13.8967 7.67876 12.995 7.85179 12.1251C8.02482 11.2553 8.45192 10.4562 9.07907 9.82907C9.70622 9.20192 10.5053 8.77482 11.3751 8.60179C12.245 8.42876 13.1467 8.51757 13.9661 8.85698C14.7855 9.19639 15.4859 9.77116 15.9786 10.5086C16.4714 11.2461 16.7344 12.1131 16.7344 13C16.7351 13.5891 16.6196 14.1726 16.3945 14.7169C16.1694 15.2613 15.8391 15.756 15.4225 16.1725C15.006 16.5891 14.5113 16.9194 13.9669 17.1445C13.4226 17.3696 12.8391 17.4851 12.25 17.4844ZM16.9192 9.37422C16.7122 9.37433 16.5097 9.31303 16.3375 9.19808C16.1653 9.08313 16.0311 8.91969 15.9518 8.72844C15.8725 8.53719 15.8517 8.32671 15.892 8.12363C15.9323 7.92055 16.032 7.73399 16.1783 7.58755C16.3247 7.44111 16.5112 7.34137 16.7143 7.30093C16.9173 7.2605 17.1278 7.2812 17.3191 7.36041C17.5104 7.43961 17.6739 7.57377 17.7889 7.74592C17.904 7.91806 17.9654 8.12046 17.9654 8.3275C17.966 8.46499 17.9394 8.60124 17.8872 8.72844C17.835 8.85564 17.7582 8.97128 17.6612 9.06873C17.5642 9.16618 17.4489 9.24352 17.322 9.29632C17.195 9.34912 17.0589 9.37634 16.9214 9.37641L16.9192 9.37422ZM21.875 0.75H2.625C1.92881 0.75 1.26113 1.02656 0.768845 1.51884C0.276562 2.01113 0 2.67881 0 3.375L0 22.625C0 23.3212 0.276562 23.9889 0.768845 24.4812C1.26113 24.9734 1.92881 25.25 2.625 25.25H21.875C22.5712 25.25 23.2389 24.9734 23.7312 24.4812C24.2234 23.9889 24.5 23.3212 24.5 22.625V3.375C24.5 2.67881 24.2234 2.01113 23.7312 1.51884C23.2389 1.02656 22.5712 0.75 21.875 0.75ZM20.9388 16.6094C20.8682 18.011 20.5483 19.253 19.5251 20.2734C18.5019 21.2939 17.261 21.6204 15.861 21.6871C14.4167 21.7686 10.0866 21.7686 8.64227 21.6871C7.24062 21.6166 6.00305 21.2961 4.9782 20.2734C3.95336 19.2508 3.63125 18.0083 3.56453 16.6094C3.48305 15.1645 3.48305 10.8338 3.56453 9.39062C3.63508 7.98898 3.95117 6.74703 4.9782 5.72656C6.00523 4.70609 7.24609 4.38344 8.64227 4.31672C10.0866 4.23523 14.4167 4.23523 15.861 4.31672C17.2627 4.38727 18.5041 4.70773 19.5251 5.73039C20.5461 6.75305 20.872 7.99555 20.9388 9.39719C21.0202 10.8366 21.0202 15.1634 20.9388 16.6094Z" fill="#2F44A7"/>
</svg>
