<svg width="25" height="26" viewBox="0 0 25 26" fill="none" xmlns="http://www.w3.org/2000/svg">
<path d="M21.8 0.75H2.616C1.17175 0.75 0 1.92578 0 3.375V22.625C0 24.0742 1.17175 25.25 2.616 25.25H21.8C23.2443 25.25 24.416 24.0742 24.416 22.625V3.375C24.416 1.92578 23.2443 0.75 21.8 0.75ZM19.135 9.43437C19.1459 9.5875 19.1459 9.74609 19.1459 9.89922C19.1459 14.6406 15.5489 20.1039 8.97615 20.1039C6.94875 20.1039 5.0685 19.5133 3.488 18.4961C3.77685 18.5289 4.0548 18.5398 4.3491 18.5398C6.02225 18.5398 7.55915 17.9711 8.7854 17.0086C7.2158 16.9758 5.8969 15.9422 5.44455 14.5203C5.995 14.6023 6.49095 14.6023 7.05775 14.4547C5.42275 14.1211 4.1965 12.6773 4.1965 10.9328V10.8891C4.67065 11.157 5.22655 11.3211 5.8097 11.343C5.31943 11.0157 4.91753 10.5718 4.63984 10.0508C4.36216 9.52977 4.21734 8.94788 4.2183 8.35703C4.2183 7.68984 4.3927 7.07734 4.70335 6.54688C6.4637 8.72344 9.10695 10.1453 12.0718 10.2984C11.5649 7.86484 13.3798 5.89062 15.5598 5.89062C16.5898 5.89062 17.5163 6.32266 18.1703 7.02266C18.9769 6.86953 19.7508 6.56875 20.4375 6.15859C20.1705 6.98984 19.6091 7.68984 18.8679 8.13281C19.5873 8.05625 20.2849 7.85391 20.928 7.575C20.443 8.29141 19.8326 8.92578 19.135 9.43437Z" fill="#2F44A7"/>
</svg>
